<?xml version="1.0" ?><!DOCTYPE svg  PUBLIC '-//W3C//DTD SVG 1.1//EN'  'http://www.w3.org/Graphics/SVG/1.1/DTD/svg11.dtd'><svg enable-background="new 0 0 500 500" height="500px" id="Layer_1" version="1.1" viewBox="0 0 500 500" width="500px" xml:space="preserve" xmlns="http://www.w3.org/2000/svg" xmlns:xlink="http://www.w3.org/1999/xlink"><path clip-rule="evenodd" d="M46.077,249.5c0,112.939,91.485,204.422,204.424,204.422  c112.931,0,204.422-91.483,204.422-204.422c0-112.93-91.491-204.423-204.422-204.423C137.563,45.077,46.077,136.57,46.077,249.5z   M91.506,249.5c0-46.332,19.804-88.033,51.425-117.108c0,0,2.537-2.459,3.265-3c2.271-1.729,5.181-2.812,8.357-2.812  c7.541,0,13.627,6.087,13.627,13.627c0,0.995-1.171,6.629-1.171,6.629c-1.829,9.715-2.822,19.714-2.822,29.979  c0,87.858,71.14,158.995,158.997,158.995c9.9,0,19.536-0.9,28.89-2.632l4.364-1.006c0.992-0.175,1.994-0.354,3.087-0.354  c7.543,0,13.63,6.087,13.63,13.629c0,3.362-1.181,6.354-3.18,8.716c-0.371,0.459-2.365,2.907-3.088,3.637  c-28.984,31.256-70.41,50.696-116.388,50.696C162.645,408.496,91.506,337.354,91.506,249.5z" fill="#010101" fill-rule="evenodd"/></svg>